@startuml

hide empty methods
hide empty fields
hide circle

together {
class SmvResult {
  ctor(_info, _rawData)
  rawData()
  persist()
  <<static>> unpersist(_info)
}
note left: _info: meta info about result\n     (e.g. fqn, version, etc)\n_rawData: the raw result data\n     (e.g. DataFrame, Panda, ...)

class SmvDataFrameResult extends SmvResult
class SmvPandasResult extends SmvResult
}

class SmvGenericModule {
  <<abstract>> def run(i) : Any
  <<abstract>> def resultType() : SmvResult
}

class SmvModule extends SmvGenericModule {
  def resultType() : return SmvDataFrameResult
}
SmvModule ..> "generates" SmvDataFrameResult

class SmvPandasModule extends SmvGenericModule {
  def resultType() : return SmvPandasResult
}
SmvPandasModule ..> "generates" SmvPandasResult

@enduml
